<svg width="1280" height="820" viewBox="0 0 1280 820" fill="none" xmlns="http://www.w3.org/2000/svg">
  <rect width="1280" height="820" rx="34" fill="#DCE3E8"/>
  <rect x="0" y="0" width="1280" height="112" fill="#18232F"/>
  <rect x="0" y="112" width="1280" height="476" fill="#E7EDF1"/>
  <rect x="0" y="588" width="1280" height="232" fill="#687780"/>

  <rect x="84" y="154" width="1112" height="454" rx="14" fill="#CFD9DF"/>
  <rect x="106" y="178" width="1068" height="406" fill="#E4EBEF"/>

  <rect x="354" y="178" width="6" height="406" fill="#B9C5CD"/>
  <rect x="644" y="178" width="6" height="406" fill="#B9C5CD"/>
  <rect x="934" y="178" width="6" height="406" fill="#B9C5CD"/>

  <rect x="106" y="372" width="1068" height="4" fill="#C6D1D8"/>

  <rect x="438" y="502" width="404" height="38" rx="8" fill="#7C8B94"/>
  <rect x="436" y="540" width="408" height="20" rx="6" fill="#5C6972"/>

  <rect x="304" y="520" width="96" height="18" rx="3" fill="#7B8A92"/>
  <rect x="304" y="538" width="96" height="28" rx="4" fill="#54616A"/>

  <rect x="880" y="520" width="96" height="18" rx="3" fill="#7B8A92"/>
  <rect x="880" y="538" width="96" height="28" rx="4" fill="#54616A"/>

  <rect x="204" y="545" width="72" height="20" rx="4" fill="#52616A"/>
  <rect x="1004" y="545" width="72" height="20" rx="4" fill="#52616A"/>

  <rect x="114" y="166" width="1052" height="12" fill="#AEBBC4" opacity="0.62"/>
  <rect x="114" y="184" width="1052" height="7" fill="#F4F8FA" opacity="0.5"/>

  <rect x="74" y="740" width="1132" height="4" fill="#55626A" opacity="0.45"/>
</svg>
