<svg width="1280" height="720" viewBox="0 0 1280 720" fill="none" xmlns="http://www.w3.org/2000/svg">
  <defs>
    <linearGradient id="bg" x1="180" y1="80" x2="1120" y2="700" gradientUnits="userSpaceOnUse">
      <stop stop-color="#2B3C53" />
      <stop offset="1" stop-color="#0F1A2A" />
    </linearGradient>
    <linearGradient id="table" x1="300" y1="470" x2="980" y2="680" gradientUnits="userSpaceOnUse">
      <stop stop-color="#D7E4F6" stop-opacity="0.82" />
      <stop offset="1" stop-color="#8BA4C2" stop-opacity="0.74" />
    </linearGradient>
    <radialGradient id="light" cx="0" cy="0" r="1" gradientUnits="userSpaceOnUse" gradientTransform="translate(640 210) rotate(90) scale(300 520)">
      <stop stop-color="#D9E8FF" stop-opacity="0.44" />
      <stop offset="1" stop-color="#D9E8FF" stop-opacity="0" />
    </radialGradient>
  </defs>

  <rect width="1280" height="720" fill="url(#bg)" />
  <rect x="0" y="0" width="1280" height="720" fill="url(#light)" />

  <rect x="290" y="120" width="700" height="90" rx="10" fill="#F3F8FF" fill-opacity="0.85" />
  <rect x="340" y="148" width="600" height="34" rx="8" fill="#314763" fill-opacity="0.66" />

  <path d="M160 540C160 500 193 468 233 468H1047C1087 468 1120 500 1120 540V652C1120 668 1108 680 1092 680H188C172 680 160 668 160 652V540Z" fill="url(#table)" />
  <path d="M160 548H1120" stroke="#E6F0FF" stroke-opacity="0.75" stroke-width="2" />

  <g opacity="0.9">
    <rect x="250" y="532" width="84" height="116" rx="18" fill="#47678E" />
    <rect x="946" y="532" width="84" height="116" rx="18" fill="#47678E" />
  </g>

  <g opacity="0.58">
    <circle cx="326" cy="600" r="30" fill="#1A2B42" />
    <circle cx="988" cy="600" r="30" fill="#1A2B42" />
  </g>

  <g opacity="0.55">
    <path d="M140 690L306 620L382 720H140V690Z" fill="#18304F" />
    <path d="M1140 690L974 620L898 720H1140V690Z" fill="#18304F" />
  </g>
</svg>
